<?xml version="1.0" encoding="UTF-8"?>
<!DOCTYPE svg PUBLIC "-//W3C//DTD SVG 1.1//EN" "http://www.w3.org/Graphics/SVG/1.1/DTD/svg11.dtd">
<!-- Creator: CorelDRAW -->
<svg xmlns="http://www.w3.org/2000/svg" xml:space="preserve" width="2048px" height="2048px" style="shape-rendering:geometricPrecision; text-rendering:geometricPrecision; image-rendering:optimizeQuality; fill-rule:evenodd; clip-rule:evenodd"
     viewBox="0 0 2048 2048"
     xmlns:xlink="http://www.w3.org/1999/xlink">
 <defs>
  <style type="text/css">
   <![CDATA[
    .fil1 {fill:none}
    .fil0 {fill:#212121;fill-rule:nonzero}
   ]]>
  </style>
 </defs>
    <g id="Layer_x0020_1">
  <metadata id="CorelCorpID_0Corel-Layer"/>
        <path class="fil0" d="M643.619 475.592l365.875 -180.816 -0.0354331 -0.0708662c10.0205,-4.95237 21.3792,-4.17048 30.3567,1.07835l365.82 180.788 -14.1248 28.6252 14.178 -28.6878c15.8433,7.82953 22.3394,27.0225 14.5099,42.8658 -3.5941,7.27323 -9.58347,12.5752 -16.5437,15.4264l-365.875 180.817 0.0354331 0.0708662c-10.0205,4.95237 -21.3792,4.17048 -30.3567,-1.07835l-365.82 -180.789 14.1248 -28.6252 -14.178 28.6878c-15.8433,-7.82953 -22.3394,-27.0225 -14.5099,-42.8658 3.5941,-7.27323 9.58347,-12.5752 16.5437,-15.4264zm380.018 -116.594l-295.826 146.198 295.826 146.199 295.826 -146.199 -295.826 -146.198z"/>
        <path class="fil0" d="M687.762 505.198c0,-17.6728 -14.328,-32.0008 -32.0008,-32.0008 -17.6728,0 -32.0008,14.328 -32.0008,32.0008l0 427.639c0,17.6728 14.328,32.0008 32.0008,32.0008 17.6728,0 32.0008,-14.328 32.0008,-32.0008l0 -427.639z"/>
        <path class="fil0" d="M1055.64 687.466c0,-17.6728 -14.328,-32.0008 -32.0008,-32.0008 -17.6728,0 -32.0008,14.328 -32.0008,32.0008l0 427.639c0,17.6728 14.328,32.0008 32.0008,32.0008 17.6728,0 32.0008,-14.328 32.0008,-32.0008l0 -427.639z"/>
        <path class="fil0" d="M1423.51 505.198c0,-17.6728 -14.328,-32.0008 -32.0008,-32.0008 -17.6728,0 -32.0008,14.328 -32.0008,32.0008l0 427.639c0,17.6728 14.328,32.0008 32.0008,32.0008 17.6728,0 32.0008,-14.328 32.0008,-32.0008l0 -427.639z"/>
        <path class="fil0" d="M275.857 1085.1l365.875 -180.817 -0.0354331 -0.0708662c10.0205,-4.95237 21.3792,-4.17048 30.3567,1.07835l365.82 180.789 -14.1248 28.6252 14.178 -28.6878c15.8433,7.82953 22.3394,27.0225 14.5099,42.8658 -3.5941,7.27323 -9.58347,12.5752 -16.5437,15.4264l-365.875 180.816 0.0354331 0.0708662c-10.0205,4.95237 -21.3792,4.17048 -30.3567,-1.07835l-365.82 -180.788 14.1248 -28.6252 -14.178 28.6878c-15.8433,-7.82953 -22.3394,-27.0225 -14.5099,-42.8658 3.5941,-7.27323 9.58347,-12.5752 16.5437,-15.4264zm380.018 -116.595l-295.826 146.199 295.826 146.198 295.826 -146.198 -295.826 -146.199z"/>
        <path class="fil0" d="M320.001 1114.7c0,-17.6728 -14.328,-32.0008 -32.0008,-32.0008 -17.6728,0 -32.0008,14.328 -32.0008,32.0008l0 427.639c0,13.4043 8.2441,24.8835 19.937,29.6469l365.768 181.224 -0.0354331 0.0708662c10.037,4.97244 21.424,4.18819 30.4158,-1.08189l365.784 -181.234c15.8091,-7.80001 22.3004,-26.941 14.5004,-42.75 -7.80001,-15.8091 -26.941,-22.3004 -42.75,-14.5004l-353.744 175.27 -335.874 -166.413 0 -407.87z"/>
        <path class="fil0" d="M687.876 1296.97c0,-17.6728 -14.328,-32.0008 -32.0008,-32.0008 -17.6728,0 -32.0008,14.328 -32.0008,32.0008l0 427.639c0,17.6728 14.328,32.0008 32.0008,32.0008 17.6728,0 32.0008,-14.328 32.0008,-32.0008l0 -427.639z"/>
        <path class="fil0" d="M1055.74 1114.7c0,-17.6728 -14.328,-32.0008 -32.0008,-32.0008 -17.6728,0 -32.0008,14.328 -32.0008,32.0008l0 427.639c0,17.6728 14.328,32.0008 32.0008,32.0008 17.6728,0 32.0008,-14.328 32.0008,-32.0008l0 -427.639z"/>
        <path class="fil0" d="M1012.11 1085.1l365.875 -180.817 -0.0354331 -0.0708662c10.0205,-4.95237 21.3792,-4.17048 30.3567,1.07835l365.82 180.789 -14.1248 28.6252 14.178 -28.6878c15.8433,7.82953 22.3394,27.0225 14.5099,42.8658 -3.5941,7.27323 -9.58347,12.5752 -16.5437,15.4264l-365.875 180.816 0.0354331 0.0708662c-10.0205,4.95237 -21.3792,4.17048 -30.3567,-1.07835l-365.82 -180.788 14.1248 -28.6252 -14.178 28.6878c-15.8433,-7.82953 -22.3394,-27.0225 -14.5099,-42.8658 3.5941,-7.27323 9.58347,-12.5752 16.5437,-15.4264zm380.018 -116.595l-295.826 146.199 295.826 146.198 295.826 -146.198 -295.826 -146.199z"/>
        <path class="fil0" d="M1056.25 1114.7c0,-17.6728 -14.328,-32.0008 -32.0008,-32.0008 -17.6728,0 -32.0008,14.328 -32.0008,32.0008l0 427.639c0,13.4043 8.2441,24.8835 19.937,29.6469l365.768 181.224 -0.0354331 0.0708662c10.037,4.97244 21.424,4.18819 30.4158,-1.08189l365.784 -181.234c15.8091,-7.80001 22.3004,-26.941 14.5004,-42.75 -7.80001,-15.8091 -26.941,-22.3004 -42.75,-14.5004l-353.744 175.27 -335.874 -166.413 0 -407.87z"/>
        <path class="fil0" d="M1424.13 1296.97c0,-17.6728 -14.328,-32.0008 -32.0008,-32.0008 -17.6728,0 -32.0008,14.328 -32.0008,32.0008l0 427.639c0,17.6728 14.328,32.0008 32.0008,32.0008 17.6728,0 32.0008,-14.328 32.0008,-32.0008l0 -427.639z"/>
        <path class="fil0" d="M1792 1114.7c0,-17.6728 -14.328,-32.0008 -32.0008,-32.0008 -17.6728,0 -32.0008,14.328 -32.0008,32.0008l0 427.639c0,17.6728 14.328,32.0008 32.0008,32.0008 17.6728,0 32.0008,-14.328 32.0008,-32.0008l0 -427.639z"/>
 </g>
    <rect class="fil1" width="2048" height="2048"/>
</svg>
